<svg xmlns="http://www.w3.org/2000/svg" width="42" height="42" viewBox="0 0 42 42"><defs><style>.a,.d{fill:#0a4eb9;}.a{opacity:0.2;}.b{fill:#6563ff;}.c{fill:#568ce2;}.e{fill:#cee0ff;}</style></defs><g transform="translate(-171.5 -2059.613)"><circle class="a" cx="21" cy="21" r="21" transform="translate(171.5 2059.613)"/><g transform="translate(180.223 2070.592)"><path class="b" d="M3,18.5" transform="translate(-0.762 -10.716)"/><path class="b" d="M18.54,18.5" transform="translate(1.083 -10.716)"/><path class="c" d="M25.613,14.636V6.9a3.356,3.356,0,0,0-3.356-3.356H4.356A3.356,3.356,0,0,0,1,6.9v7.737Z" transform="translate(-1 -3.542)"/><path class="d" d="M1,12.193v8.175a1.119,1.119,0,0,0,1.119,1.119H6.594a1.12,1.12,0,0,0,.929-.5L9.435,18.13h7.742l1.913,2.853a1.12,1.12,0,0,0,.929.5h4.475a1.119,1.119,0,0,0,1.119-1.119V12.193" transform="translate(-1 -1.396)"/><path class="e" d="M7,14.025V12.637c0-.766.886-1.387,1.978-1.387h3.955c1.092,0,1.978.622,1.978,1.387v1.387Zm7.91,0V12.637c0-.766.886-1.387,1.978-1.387h3.955c1.092,0,1.978.622,1.978,1.387v1.387Z" transform="translate(-2.604 -3.228)"/></g></g></svg>