<svg xmlns="http://www.w3.org/2000/svg" width="42" height="42" viewBox="0 0 42 42"><defs><style>.a,.c{fill:#ffb438;}.a{opacity:0.2;}.b{fill:#ffd287;}</style></defs><g transform="translate(-570 -1901)"><g transform="translate(570 1901)"><ellipse class="a" cx="21" cy="21" rx="21" ry="21" transform="translate(0)"/></g><g transform="translate(579.421 1910.252)"><path class="b" d="M7.165,6.659A1.164,1.164,0,0,1,6,5.5H6V3.165a1.165,1.165,0,1,1,2.33,0v2.33A1.164,1.164,0,0,1,7.166,6.659Zm11.649,0A1.164,1.164,0,0,1,17.649,5.5h0V3.165a1.165,1.165,0,1,1,2.33,0v2.33a1.164,1.164,0,0,1-1.164,1.165Z" transform="translate(-1.341 -2)"/><path class="c" d="M21.8,4H20.638V5.165a1.165,1.165,0,1,1-2.33,0V4H8.989V5.165a1.165,1.165,0,1,1-2.33,0V4H5.495A3.5,3.5,0,0,0,2,7.495v2.33H25.3V7.495A3.5,3.5,0,0,0,21.8,4Z" transform="translate(-2 -1.67)"/><circle class="c" cx="1" cy="1" r="1" transform="translate(4.519 11.833)"/><ellipse class="c" cx="1" cy="1.5" rx="1" ry="1.5" transform="translate(4.519 15.833)"/><ellipse class="c" cx="2" cy="1" rx="2" ry="1" transform="translate(9.519 11.833)"/><ellipse class="c" cx="2" cy="1.5" rx="2" ry="1.5" transform="translate(9.519 15.833)"/><circle class="c" cx="1" cy="1" r="1" transform="translate(16.519 11.833)"/><ellipse class="c" cx="1" cy="1.5" rx="1" ry="1.5" transform="translate(16.519 15.833)"/><path class="b" d="M2,9V20.649a3.5,3.5,0,0,0,3.495,3.495H21.8A3.5,3.5,0,0,0,25.3,20.649V9ZM7.824,19.484a1.165,1.165,0,1,1,1.165-1.165A1.165,1.165,0,0,1,7.824,19.484Zm0-4.659A1.165,1.165,0,1,1,8.989,13.66,1.165,1.165,0,0,1,7.824,14.824Zm5.824,4.659a1.165,1.165,0,1,1,1.165-1.165A1.165,1.165,0,0,1,13.649,19.484Zm0-4.659a1.165,1.165,0,1,1,1.165-1.165A1.165,1.165,0,0,1,13.649,14.824Zm5.824,4.659a1.165,1.165,0,1,1,1.165-1.165A1.165,1.165,0,0,1,19.473,19.484Zm0-4.659a1.165,1.165,0,1,1,1.165-1.165A1.165,1.165,0,0,1,19.473,14.824Z" transform="translate(-2 -0.846)"/></g></g></svg>