<svg xmlns="http://www.w3.org/2000/svg" width="42" height="42" viewBox="0 0 42 42"><defs><style>.a,.d{fill:#7febc0;}.b{fill:#aaf2d5;}.c{fill:#2bdf96;}.d{opacity:0.2;}</style></defs><g transform="translate(-0.136 -0.004)"><g transform="translate(9.5 9.212)"><path class="a" d="M24.137,23.694H3.229a1.169,1.169,0,0,1-1.162-1.3,11.688,11.688,0,0,1,23.233,0,1.169,1.169,0,0,1-1.163,1.3Z" transform="translate(-2.06 -0.307)"/><path class="b" d="M13.746,19.375l5.5-5.513a11.7,11.7,0,0,0-12.667,0l5.51,5.51a1.169,1.169,0,0,0,.827.343h0a1.171,1.171,0,0,0,.827-.343Z" transform="translate(-1.294 -0.307)"/><path class="b" d="M13.011,16.032a7.016,7.016,0,1,1,7.016-7.016A7.016,7.016,0,0,1,13.011,16.032Z" transform="translate(-1.394 -2)"/><path class="c" d="M6.09,9A7.008,7.008,0,0,0,19.912,9Z" transform="translate(-1.378 -0.815)"/></g><circle class="d" cx="21" cy="21" r="21" transform="translate(0.136 0.004)"/></g></svg>