<svg xmlns="http://www.w3.org/2000/svg" width="42" height="42" viewBox="0 0 42 42"><defs><style>.a,.b{fill:#f965d1;}.a{opacity:0.2;}.c{fill:#f0aadd;}</style></defs><g transform="translate(-954.327 -1901.328)"><g transform="translate(954 1901)"><circle class="a" cx="21" cy="21" r="21" transform="translate(0.327 0.328)"/></g><g transform="translate(969.905 1914.076)"><path class="b" d="M16.091,17.135h-.807V15.79a4.034,4.034,0,0,0-.242-1.353c-.009-.024-.018-.046-.029-.068a4.014,4.014,0,0,0-.536-1l-1.129-1.506a2.435,2.435,0,0,1-.484-1.453V9.6a2.437,2.437,0,0,1,.709-1.711l.53-.53a3.989,3.989,0,0,0,1.126-2.29c0-.011.006-.021.006-.032l0-.011a4.048,4.048,0,0,0,.051-.519V2.615h.807a.807.807,0,0,0,0-1.613H4.8a.807.807,0,1,0,0,1.613h.807V4.5a4.048,4.048,0,0,0,.051.519l0,.011c0,.011.006.021.006.032a3.989,3.989,0,0,0,1.126,2.29l.53.53A2.437,2.437,0,0,1,8.025,9.6v.815a2.438,2.438,0,0,1-.484,1.453l-1.13,1.506a4.019,4.019,0,0,0-.536,1c-.011.022-.02.044-.029.067A4.036,4.036,0,0,0,5.6,15.79v1.345H4.8a.807.807,0,0,0,0,1.613H16.091a.807.807,0,0,0,0-1.613ZM7.218,4.229V2.615h6.453V4.229Zm.709,1.987a2.4,2.4,0,0,1-.3-.374h5.644a2.4,2.4,0,0,1-.3.374l-.53.53a4,4,0,0,0-1.147,2.322H9.6A4,4,0,0,0,8.457,6.746Zm.905,6.616a4.063,4.063,0,0,0,.8-2.15H11.26a4.06,4.06,0,0,0,.8,2.15l.807,1.076H8.025Zm4.839,4.3H7.218V15.79a2.383,2.383,0,0,1,.022-.269h6.409a2.382,2.382,0,0,1,.022.269Z" transform="translate(-3.992 -1.002)"/><path class="c" d="M15.65,17.521V16.177a4.034,4.034,0,0,0-.242-1.353c-.009-.024-.018-.046-.029-.068a4.014,4.014,0,0,0-.536-1l-1.129-1.506A2.435,2.435,0,0,1,13.23,10.8V9.984a2.437,2.437,0,0,1,.709-1.711l.53-.53a3.989,3.989,0,0,0,1.126-2.29c0-.011.006-.021.006-.032l0-.011a4.048,4.048,0,0,0,.051-.519V3H5.97v1.89a4.048,4.048,0,0,0,.051.519l0,.011c0,.011.006.021.006.032a3.989,3.989,0,0,0,1.126,2.29l.53.53A2.437,2.437,0,0,1,8.39,9.984V10.8a2.438,2.438,0,0,1-.484,1.453l-1.13,1.506a4.019,4.019,0,0,0-.536,1c-.011.022-.02.044-.029.067a4.036,4.036,0,0,0-.242,1.354v1.345C11.106,17.5,15.65,17.521,15.65,17.521ZM7.583,3h0Zm.709,3.6a2.4,2.4,0,0,1-.3-.374h5.644a2.4,2.4,0,0,1-.3.374l-.53.53a4,4,0,0,0-1.147,2.322H9.969A4,4,0,0,0,8.822,7.133ZM9.2,13.219a4.063,4.063,0,0,0,.8-2.15h1.631a4.06,4.06,0,0,0,.8,2.15l.807,1.076H8.39Z" transform="translate(-4.357 -1.389)"/><path class="b" d="M8.865,7.412A2.708,2.708,0,0,1,8.493,7h6.9a2.708,2.708,0,0,1-.372.41l-.649.582a4.988,4.988,0,0,0-1.434,2.824H10.886A4.9,4.9,0,0,0,9.514,7.994ZM9.972,14.67a4.189,4.189,0,0,0,.975-2.359h2a4.186,4.186,0,0,0,.976,2.359l.987,1.18H8.985Z" transform="translate(-5.497 -2.692)"/></g></g></svg>