<svg xmlns="http://www.w3.org/2000/svg" width="42" height="42" viewBox="0 0 42 42"><defs><style>.a,.d{fill:#7368ea;}.a{opacity:0.2;}.b{opacity:0.81;}.c{fill:none;}.e{opacity:0.26;}</style></defs><g transform="translate(-955 -2060)"><g transform="translate(955 2060)"><ellipse class="a" cx="21" cy="21" rx="21" ry="21" transform="translate(0)"/></g><g transform="translate(959.711 2064.669)"><g class="b" transform="translate(0)"><path class="c" d="M0,0H32.825V32.825H0Z"/><path class="d" d="M8.488,11.364,12.871,8.18a2.729,2.729,0,0,1,1.7-.525,3.578,3.578,0,0,1,3.319,2.489,6.035,6.035,0,0,0,.7,1.617,6.828,6.828,0,0,0,5.468,2.733v2.735a9.555,9.555,0,0,1-7.388-3.484l-.953,5.409,2.819,2.366,3.04,8.354L19,30.81l-2.79-7.665-4.637-3.891a2.735,2.735,0,0,1-.975-2.6l.7-3.946-.926.673-2.909,4L5.249,15.774l3.216-4.426Zm8.046-4.393a2.735,2.735,0,1,1,2.735-2.735A2.735,2.735,0,0,1,16.534,6.971ZM12.469,25l-4.4,5.238-2.1-1.758,4.07-4.85,1.02-2.982,2.45,2.052Z" transform="translate(1.93 0.552)"/></g><g class="e" transform="translate(0)"><path class="c" d="M0,0H32.825V32.825H0Z"/><path d="M12.735,31.972l-4.4,5.238-2.1-1.758,4.07-4.85,1.02-2.982,2.45,2.052-1.049,2.3Z" transform="translate(1.665 -6.421)"/></g></g></g></svg>