<svg xmlns="http://www.w3.org/2000/svg" width="15.197" height="15.197" viewBox="0 0 15.197 15.197"><defs><style>.a,.d{fill:#156cd2;}.a{opacity:0.29;}.b{fill:none;stroke:#156cd2;stroke-linecap:round;}.c,.d{stroke:none;}</style></defs><g transform="translate(0.97 2.342)"><g class="a" transform="translate(-0.97 -2.342)"><path class="c" d="M 7.598251342773438 14.69650173187256 C 3.684261322021484 14.69650173187256 0.5000013709068298 11.51224136352539 0.5000013709068298 7.598251342773438 C 0.5000013709068298 3.684261322021484 3.684261322021484 0.5000013709068298 7.598251342773438 0.5000013709068298 C 11.51224136352539 0.5000013709068298 14.69650173187256 3.684261322021484 14.69650173187256 7.598251342773438 C 14.69650173187256 11.51224136352539 11.51224136352539 14.69650173187256 7.598251342773438 14.69650173187256 Z"/><path class="d" d="M 7.598251342773438 1.000000953674316 C 3.9599609375 1.000000953674316 1.000000953674316 3.9599609375 1.000000953674316 7.598251342773438 C 1.000000953674316 11.23654174804688 3.9599609375 14.19650173187256 7.598251342773438 14.19650173187256 C 11.23654174804688 14.19650173187256 14.19650173187256 11.23654174804688 14.19650173187256 7.598251342773438 C 14.19650173187256 3.9599609375 11.23654174804688 1.000000953674316 7.598251342773438 1.000000953674316 M 7.598251342773438 9.5367431640625e-07 C 11.79465103149414 9.5367431640625e-07 15.19650173187256 3.401851654052734 15.19650173187256 7.598251342773438 C 15.19650173187256 11.79465103149414 11.79465103149414 15.19650173187256 7.598251342773438 15.19650173187256 C 3.401851654052734 15.19650173187256 9.5367431640625e-07 11.79465103149414 9.5367431640625e-07 7.598251342773438 C 9.5367431640625e-07 3.401851654052734 3.401851654052734 9.5367431640625e-07 7.598251342773438 9.5367431640625e-07 Z"/></g><path class="b" d="M0,1.5,1.708,0,3.417,1.5" transform="translate(6.854 2.675) rotate(42)"/><path class="b" d="M0,0V3.859" transform="translate(7.848 3.992) rotate(42)"/></g></svg>