<svg xmlns="http://www.w3.org/2000/svg" width="17.123" height="17.123" viewBox="0 0 17.123 17.123"><defs><style>.a{fill:none;}.b{fill:#fff;}</style></defs><path class="a" d="M0,0H17.123V17.123H0Z"/><path class="b" d="M16.269,5.854h.713v7.135h-.713v2.14a.713.713,0,0,1-.713.713H2.713A.713.713,0,0,1,2,15.129V3.713A.713.713,0,0,1,2.713,3H15.556a.713.713,0,0,1,.713.713Zm-1.427,7.135H10.561a3.567,3.567,0,1,1,0-7.135h4.281V4.427H3.427v9.988H14.842Zm.713-1.427V7.281H10.561a2.14,2.14,0,1,0,0,4.281ZM10.561,8.708H12.7v1.427h-2.14Z" transform="translate(-0.573 -0.86)"/></svg>