<svg xmlns="http://www.w3.org/2000/svg" width="16" height="16" viewBox="0 0 16 16"><defs><style>.a{fill:none;}.b{fill:#fff;}</style></defs><path class="a" d="M0,0H16V16H0Z"/><path class="b" d="M1.667,6.387h2v8h-2A.667.667,0,0,1,1,13.72V7.053a.667.667,0,0,1,.667-.667ZM5.2,5.525,9.462,1.258A.333.333,0,0,1,9.9,1.227l.569.427A1,1,0,0,1,10.835,2.7l-.769,3.02h4.267a1.333,1.333,0,0,1,1.333,1.333v1.4a1.333,1.333,0,0,1-.1.508L13.5,13.974a.667.667,0,0,1-.617.413H5.667A.667.667,0,0,1,5,13.72V6a.667.667,0,0,1,.2-.471Z" transform="translate(-0.333 -0.387)"/></svg>