<svg xmlns="http://www.w3.org/2000/svg" width="39.539" height="42.75" viewBox="0 0 39.539 42.75"><defs><style>.a{fill:#465be0;}</style></defs><path class="a" d="M42.221,35.168,36.274,24.9a15.142,15.142,0,0,0,1.843-7.286,15.362,15.362,0,0,0-30.724,0A15.142,15.142,0,0,0,9.237,24.9L3.29,35.168A2.195,2.195,0,0,0,5.2,38.46h6.3l3.2,5.4a2.3,2.3,0,0,0,1.909,1.1h.307a2.195,2.195,0,0,0,1.6-1.075l4.235-7.286,4.235,7.352A2.195,2.195,0,0,0,28.593,45H28.9a2.195,2.195,0,0,0,1.536-.614,1.909,1.909,0,0,0,.373-.461l3.2-5.4h6.3a2.227,2.227,0,0,0,1.909-3.358ZM16.589,38.526l-1.953-3.27a2.195,2.195,0,0,0-1.865-1.075h-3.8l3.138-5.442a15.362,15.362,0,0,0,7.835,4.038Zm6.167-9.941A10.973,10.973,0,1,1,33.728,17.612,10.973,10.973,0,0,1,22.756,28.584Zm9.985,5.6a2.195,2.195,0,0,0-1.865,1.075l-1.953,3.27L25.587,32.71A15.493,15.493,0,0,0,33.4,28.672l3.138,5.442Z" transform="translate(-2.996 -2.25)"/></svg>