<svg xmlns="http://www.w3.org/2000/svg" width="40.703" height="43.272" viewBox="0 0 40.703 43.272"><defs><style>.a{fill:#465be0;}</style></defs><path class="a" d="M43.241,10.119A2.163,2.163,0,0,0,42.224,8.8L30.975,2.31a2.163,2.163,0,0,0-2.964.779l-5.062,8.783L17.887,3.088a2.163,2.163,0,0,0-2.964-.779L3.674,8.8a2.148,2.148,0,0,0-.8,2.942l8.653,14.775A12.785,12.785,0,0,0,9.97,32.271,12.98,12.98,0,1,0,34.5,26.387l8.437-14.624A2.163,2.163,0,0,0,43.241,10.119ZM7.806,11.46l7.485-4.327,6.966,12.158A12.85,12.85,0,0,0,14.3,22.709ZM22.949,40.924A8.653,8.653,0,1,1,31.6,32.271,8.653,8.653,0,0,1,22.949,40.924ZM31.6,22.644a12.763,12.763,0,0,0-4.024-2.488L25.459,16.2l5.235-9.064,7.485,4.327Z" transform="translate(-2.588 -2.013)"/></svg>