<svg xmlns="http://www.w3.org/2000/svg" width="14.73" height="14.731" viewBox="0 0 14.73 14.731"><defs><style>.a{fill:#28313a;}</style></defs><path class="a" d="M16.215,7.951a2.21,2.21,0,0,0-1.694-.8H11.163L11.575,6.1A3.042,3.042,0,0,0,8.71,2a.737.737,0,0,0-.67.435L5.94,7.156H4.21A2.21,2.21,0,0,0,2,9.365v5.156a2.21,2.21,0,0,0,2.21,2.21h9.376a2.21,2.21,0,0,0,2.173-1.812l.935-5.156A2.21,2.21,0,0,0,16.215,7.951ZM5.683,15.258H4.21a.737.737,0,0,1-.737-.737V9.365a.737.737,0,0,1,.737-.737H5.683Z" transform="translate(-2 -2)"/></svg>