<svg xmlns="http://www.w3.org/2000/svg" width="14.73" height="14.731" viewBox="0 0 14.73 14.731"><defs><style>.a{fill:#28313a;}</style></defs><path class="a" d="M16.215,10.779a2.21,2.21,0,0,1-1.694.8H11.163l.412,1.053a3.042,3.042,0,0,1-2.865,4.1.737.737,0,0,1-.67-.435l-2.1-4.721H4.21A2.21,2.21,0,0,1,2,9.365V4.21A2.21,2.21,0,0,1,4.21,2h9.376a2.21,2.21,0,0,1,2.173,1.812l.935,5.156A2.21,2.21,0,0,1,16.215,10.779ZM5.683,3.473H4.21a.737.737,0,0,0-.737.737V9.365a.737.737,0,0,0,.737.737H5.683Z" transform="translate(-2 -2)"/></svg>