<svg xmlns="http://www.w3.org/2000/svg" width="275.102" height="158.542" viewBox="0 0 275.102 158.542"><defs><style>.a{fill:#42505d;}.b,.c,.e,.f{fill:none;stroke-linecap:round;stroke-linejoin:round;stroke-width:3px;}.b{stroke:#43e4d0;}.c{stroke:#42505d;}.d{fill:#43e4d0;}.e{stroke:#2e186a;}.f{stroke:#18dec5;}</style></defs><g transform="translate(1.5 1.501)"><g transform="translate(0 0)"><g transform="translate(0)"><g transform="translate(88.491 89.828)"><path class="a" d="M643.706,494.3h-4.839a2.695,2.695,0,0,1-2.706-2.689V485.68l-7.492,1.833,2.012,7.887c2.12,28.885-35.927,32.047-37.369.761l-23.577,5.769v-.011l-15.394,3.35,10.249,40.92,21.374-5.159c2.948,5.695,5.107,9.647,5.107,9.647H657Z" transform="translate(-554.34 -485.68)"/></g><g transform="translate(0 4.448)"><g transform="translate(0 0)"><path class="b" d="M149.82,198.226a57.915,57.915,0,0,0-15.484-2.166,38.68,38.68,0,0,0,.5,18.539" transform="translate(-123.299 -164.579)"/><path class="b" d="M217.927,225.127a48.316,48.316,0,0,1-.114-17.737" transform="translate(-191.328 -173.801)"/><path class="b" d="M221.16,60.489c1.8-10.105,6.975-21.446,17.739-33.589a61.407,61.407,0,0,1,20.06,18.927" transform="translate(-194.674 -26.9)"/><path class="b" d="M478.57,273.291s9.419-34.191,42.139-24.2a57.109,57.109,0,0,1-5.468,18.348" transform="translate(-404.18 -206.25)"/><path class="b" d="M353.71,79.283C357.529,66.215,366.9,51.74,387.359,39.42a52.508,52.508,0,0,1,12.1,19.807" transform="translate(-302.556 -37.09)"/><path class="b" d="M354.546,187.878c-1.232-6.616-4.686-14.239-11.754-22.768,0,0-47.875,21.722-23.869,51.035" transform="translate(-268.76 -139.389)"/><path class="b" d="M190.3,323.068c-4.7-7.031-21.649-28.868-49.341-26.426" transform="translate(-129.399 -246.288)"/><path class="b" d="M90.408,297.44a54.681,54.681,0,0,0-11.568,2.337s6.867,15.861,22.686,25.583" transform="translate(-78.84 -247.092)"/></g><path class="c" d="M584.131,467.247l2.885-12.672h4.8a2.693,2.693,0,0,0,2.695-2.693v-9.837a2.7,2.7,0,0,0-2.695-2.695H581.89" transform="translate(-488.272 -362.592)"/><path class="c" d="M244.533,439.35H201.691A2.7,2.7,0,0,0,199,442.045v9.837a2.693,2.693,0,0,0,2.693,2.693h4.479l13.375,58.778" transform="translate(-176.638 -362.592)"/></g><g transform="translate(45.654 21.185)"><g transform="translate(0 41.714)"><path class="c" d="M510.69,624.282c26.227-8.862,72.276-18,72.276-18L534.174,575.75s-10.868,2.466-21.975,5.875" transform="translate(-475.976 -532.059)"/><path class="c" d="M331.509,433.291c-12.733-2.185-9.1-37.872,12.305-69.4,9.594-15.588,12.353-19.824,19.727-22.248a12.492,12.492,0,0,1,9.253.5c11.659,5.157,24.05,10.524,15.752,12.882s-27.884,18.454-27.884,18.454.186,20.907-.849,28.527a73.475,73.475,0,0,1-3.4,14.164" transform="translate(-324.16 -340.981)"/></g><g transform="translate(45.193)"><path class="c" d="M718.5,312.55c-.577,8.747.728,19.684,2.047,26.788" transform="translate(-690.188 -276.127)"/><path class="c" d="M958.2,364.65c2.309.208,7.258,1.359,6.452,7.386-.7,5.274-5.4,5.239-8.384,4.653" transform="translate(-883.826 -318.531)"/><path class="c" d="M798.9,473.93l3.039,11.91C804,513.955,767.979,517.7,764.75,489" transform="translate(-727.948 -407.474)"/><path class="c" d="M761.421,371.57s-1.578,10.632-2.28,14.54a83.633,83.633,0,0,0-23.482-1.928s-7.459.635-10.379,1.714c0,0,1.526,13.585,8.038,20.252s19.187,3.862,24.917-.769,6.594-6.718,7.69-11.352,3.676-21.791,3.676-21.791Z" transform="translate(-695.823 -324.164)"/><path class="a" d="M640.323,167.356s3.882-8.038,5.025-14.657a13.472,13.472,0,0,0-8.04-14.84c-4.9-1.991-6.489-1.344-6.489-1.344s2.909-5.17-4.653-12.783a13.788,13.788,0,0,0-10.12-4.074,13.29,13.29,0,0,0-12.13,8.06s-9.863-18.221-30.188-7.507c-2.047,1.081-4.364,4.1-5.475,6.141-6.739,12.339,15.324,27.035,26.827,28.224,12.629,1.3,20.562-.268,24.422-3.614C616.6,152.97,621.761,171.471,640.323,167.356Z" transform="translate(-566.998 -116.836)"/><path class="c" d="M774.616,411.28l-.6,11.963,4.117-1.342" transform="translate(-735.493 -356.483)"/><path class="c" d="M821.332,359.895a5.583,5.583,0,0,0-5.412-1.734" transform="translate(-769.595 -313.136)"/><path class="c" d="M743.065,343.585s-3.305-1.128-4.355,1.563" transform="translate(-706.754 -301.195)"/><path class="a" d="M827.626,487.353c-.651-.893-7,3.558-4.517,3.958S829.024,489.272,827.626,487.353Z" transform="translate(-774.981 -418.303)"/></g><g transform="translate(28.378 43.456)"><path class="d" d="M690.089,383.165l24.108-8.148a5.431,5.431,0,0,0,3.112-5.412c-.114-4.184-5.375-5.749-5.375-5.749L686.24,360.23Z" transform="translate(-648.11 -360.141)"/><path class="d" d="M551.469,383.165l24.108-8.148a5.431,5.431,0,0,0,3.113-5.412c-.114-4.184-5.377-5.749-5.377-5.749l-12.428.824L547.62,360.23Z" transform="translate(-535.287 -360.141)"/><circle class="a" cx="11.884" cy="11.884" r="11.884" transform="translate(25.976)"/><circle class="a" cx="11.884" cy="11.884" r="11.884" transform="translate(0 0.169)"/></g><g transform="translate(39.839 36.966)"><path class="c" d="M585.27,319.732c4.783-3.378,13.976-4.515,15.968-4.219,1.911.285.8,3.443-4.913,5.185" transform="translate(-576.516 -315.468)"/><path class="c" d="M601.34,338.832c5.769-1.414,15.966,3.953,17.607,5.522,1.759,1.675-3.011,4.318-11.964-.88,0,0-2.624-1.772-4.744-1.571" transform="translate(-589.595 -334.293)"/><path class="c" d="M538.23,340.947c5.436-2.605,17,3.437,18.759,5.116s-3.011,4.316-11.964-.88c0,0-2.624-1.772-4.742-1.571" transform="translate(-538.23 -335.682)"/></g></g><g transform="translate(153.201)"><path class="c" d="M1044.126,72.731l-3.687-17.088c-1-4.619-5.836-7.615-10.811-6.688h0c-4.973.931-8.2,5.421-7.2,10.049l5.5,25.5" transform="translate(-999.879 -40.265)"/><path class="c" d="M1190.125,36.693l.592-24.908c.151-4.71-3.837-8.643-8.909-8.782h0c-5.069-.14-9.305,3.566-9.454,8.276l-.745,23.32" transform="translate(-1121.445 -2.999)"/><path class="c" d="M1316.5,83.2l5.211-24.193c1-4.621-2.233-9.119-7.2-10.049h0c-4.975-.931-9.813,2.069-10.811,6.688l-4.364,17.641" transform="translate(-1225.396 -40.269)"/><path class="c" d="M1412.4,209.062l22.926-42.69a8.261,8.261,0,0,0-4.118-11.443h0a9.525,9.525,0,0,0-12.32,3.826L1413.07,169.6" transform="translate(-1317.423 -125.923)"/><line class="e" x2="5.03" y2="9.363" transform="translate(18.841 73.735)"/><path class="c" d="M926.343,171.581l-6.886-12.826a9.523,9.523,0,0,0-12.32-3.826h0a8.262,8.262,0,0,0-4.118,11.443l14.842,27.644" transform="translate(-902.052 -125.923)"/><path class="f" d="M1079.945,223.093l11.434-25.124c2.216-4.868.6-11.038-3.614-13.781h0c-4.212-2.741-9.422-1.018-11.639,3.85l-8.775,19.276,4.692-21.629c1.165-5.375-1.63-10.969-6.244-12.491h0c-4.615-1.524-9.305,1.6-10.466,6.975l-4.652,21.415-2.447-21.331c-.64-5.555-4.984-9.579-9.7-8.987h0c-4.716.594-8.019,5.583-7.379,11.134l2.538,22.023-5.544-14.315c-1.991-5.14-7.111-7.532-11.434-5.339h0c-4.321,2.19-6.212,8.133-4.221,13.273L1022.2,223.1" transform="translate(-991.296 -139.905)"/><path class="c" d="M1063.182,497.964l7.708-32.7h4.524a2.695,2.695,0,0,0,2.7-2.689v-9.876a2.7,2.7,0,0,0-2.7-2.695H996.7a2.695,2.695,0,0,0-2.7,2.695v9.876a2.7,2.7,0,0,0,2.7,2.689h4.839l13.4,56.789" transform="translate(-976.888 -366.812)"/></g><g transform="translate(201.917 122.556)"><path class="c" d="M1288.675,669.046c-2.148-3.074-3.791-6.354-1.733-7.232,2.831-1.208,2.792,1.841,7.059,4.751s8.265,3.456,12.5,8.747" transform="translate(-1263.262 -661.543)"/><path class="c" d="M1205.16,686.4c-7.286-3.957-17.866-4.185-20.4-4.072-1.548.069-2.081,1.381-.908,3.035" transform="translate(-1179.603 -678.445)"/><path class="c" d="M1185.953,703.921c-7.385-3.877-17.9-5.328-20.588-5.118-2.222.175-2.248,3.02,1.3,5.868" transform="translate(-1163.824 -691.853)"/><path class="c" d="M1192.215,734.109c-6.744-3.017-14.585-4.437-16.868-4.312-2.443.134-2.535,3.9,1.93,7.351" transform="translate(-1171.842 -717.089)"/><path class="c" d="M1207.9,764.676c-5.706-2.369-11.386-3.67-13.213-3.45-3.6.432-.6,6.862,16.487,11.991" transform="translate(-1187.848 -742.655)"/><path class="c" d="M1289.2,726.3c35.143,9.586,32.853-20.843,2.451-22.742" transform="translate(-1265.867 -695.741)"/></g><line class="c" x1="148.808" transform="translate(42.345 155.373)"/></g></g></g></svg>