<svg xmlns="http://www.w3.org/2000/svg" width="193.099" height="137.786" viewBox="0 0 193.099 137.786"><defs><style>.a,.b,.f,.o{fill:#42505d;}.a{opacity:0.1;}.c{fill:#fff;}.d{fill:#fdffff;}.e,.i{fill:#18dec5;}.f,.h,.i{opacity:0.21;}.g{fill:#4c4c4c;opacity:0.14;}.j{opacity:0.17;}.k,.l,.m,.n,.p{fill:none;}.k{stroke:#fff;stroke-width:3.34px;}.k,.l,.n,.p{stroke-linecap:round;stroke-linejoin:round;}.l,.m,.p{stroke:#42505d;}.l,.n{stroke-width:0.773px;}.m{stroke-miterlimit:10;}.n{stroke:#624f6e;}.o{font-size:10.38px;font-family:Montserrat-Light, Montserrat;font-weight:300;}.p{stroke-width:1.546px;}</style></defs><g transform="translate(494.644 1.138)"><path class="a" d="M-378.188,71.83c-5.413-5.362-13.224-7.916-18.244-13.647-9.21-10.516-7.329-30.822-20.336-38.179-7.688-4.348-19.536-1.5-24.432,5.875-5.19,7.82-.84,17.94-4.408,26.265-3.974,9.273-13.543,14.552-21.532,20.713-7.7,5.934-14.6,13.666-16.751,23.143s1.752,20.776,10.647,24.69c5.421,2.385,11.728,1.763,17.387.016s10.938-4.543,16.521-6.517a73.725,73.725,0,0,1,29.082-3.62c8.111.5,16.537,2,24.162-.809a23.137,23.137,0,0,0,14.355-16.771A23.667,23.667,0,0,0-378.188,71.83Z"/><path class="b" d="M-333.087,47.456a.287.287,0,0,1,.076-.033.256.256,0,0,1,.31.186l2.99,11.955a.255.255,0,0,1-.185.31.256.256,0,0,1-.31-.186l-2.99-11.955A.257.257,0,0,1-333.087,47.456Z"/><path class="b" d="M-318.261,42.129a.264.264,0,0,1,.079-.033l7.122-1.5a.234.234,0,0,1,.278.181.236.236,0,0,1-.181.278l-7.122,1.5a.236.236,0,0,1-.278-.182A.234.234,0,0,1-318.261,42.129Z"/><path class="b" d="M-334.464,66.12a.242.242,0,0,1,.081-.033l11.444-2.41a.24.24,0,0,1,.284.185.241.241,0,0,1-.185.283l-11.444,2.41a.239.239,0,0,1-.284-.185A.24.24,0,0,1-334.464,66.12Z"/><path class="a" d="M-402.3,20.936c-.193,2.894,1.031,5.708,4.34,7.876,3.866,2.532,10.068,4.608,10.422,10.092.091,1.422-.3,2.893.127,4.252.711,2.242,3.619,3.263,5.815,2.42,3.524-1.353,3.7-4.784,4.482-7.936.881-3.566,3.825-4.985,5.447-7.958,1.459-2.676,1.274-5.957.556-8.817C-372.5,15.311-376.731,8.923-382.4,7.037-390.454,4.357-401.767,12.952-402.3,20.936Z"/><path class="a" d="M-402.3,20.936c-.193,2.894,1.031,5.708,4.34,7.876,3.866,2.532,10.068,4.608,10.422,10.092.091,1.422-.3,2.893.127,4.252.711,2.242,3.619,3.263,5.815,2.42,3.524-1.353,3.7-4.784,4.482-7.936.881-3.566,3.825-4.985,5.447-7.958,1.459-2.676,1.274-5.957.556-8.817C-372.5,15.311-376.731,8.923-382.4,7.037-390.454,4.357-401.767,12.952-402.3,20.936Z" transform="matrix(-0.208, 0.978, -0.978, -0.208, -407.157, 481.649)"/><path class="c" d="M-384.757,52.772a1.239,1.239,0,0,0,1.233,1.135,1.239,1.239,0,0,0,1.232-1.135Z"/><path class="d" d="M12.276,0h88.154a13.777,13.777,0,0,1,13.777,13.777V87.688a0,0,0,0,1,0,0H0a0,0,0,0,1,0,0V12.276A12.276,12.276,0,0,1,12.276,0Z" transform="translate(-463.31 47.386)"/><path class="e" d="M-349.1,67.366V54.139a6.753,6.753,0,0,0-6.753-6.754h-101.35a6.1,6.1,0,0,0-6.1,6.105V67.366Z"/><ellipse class="f" cx="4.851" cy="5.609" rx="4.851" ry="5.609" transform="translate(-471.217 31.594)"/><rect class="e" width="140.237" height="4.04" rx="2.02" transform="translate(-476.799 132.609)"/><path class="f" d="M-455.493,16.3h-1.2a2.407,2.407,0,0,1-2.4-2.4h0a2.407,2.407,0,0,1,2.4-2.4h1.2a2.407,2.407,0,0,1,2.4,2.4h0A2.407,2.407,0,0,1-455.493,16.3Z"/><ellipse class="g" cx="4.074" cy="4.159" rx="4.074" ry="4.159" transform="translate(-451.822 48.229)"/><ellipse class="g" cx="4.074" cy="4.159" rx="4.074" ry="4.159" transform="translate(-439.823 48.029)"/><ellipse class="g" cx="4.074" cy="4.159" rx="4.074" ry="4.159" transform="translate(-427.524 48.129)"/><ellipse class="g" cx="4.074" cy="4.159" rx="4.074" ry="4.159" transform="translate(-415.425 47.929)"/><ellipse class="g" cx="4.074" cy="4.159" rx="4.074" ry="4.159" transform="translate(-403.425 48.129)"/><ellipse class="g" cx="4.074" cy="4.159" rx="4.074" ry="4.159" transform="translate(-391.426 48.029)"/><ellipse class="g" cx="4.074" cy="4.159" rx="4.074" ry="4.159" transform="translate(-379.427 47.829)"/><ellipse class="g" cx="4.074" cy="4.159" rx="4.074" ry="4.159" transform="translate(-367.228 48.129)"/><path class="b" d="M-447.756,54.445h0a2.106,2.106,0,0,1-2.1-2.1V40.413a2.106,2.106,0,0,1,2.1-2.1h0a2.106,2.106,0,0,1,2.1,2.1V52.345A2.106,2.106,0,0,1-447.756,54.445Z"/><path class="b" d="M-435.7,54.362h0a2.106,2.106,0,0,1-2.1-2.1V40.329a2.106,2.106,0,0,1,2.1-2.1h0a2.106,2.106,0,0,1,2.1,2.1V52.262A2.106,2.106,0,0,1-435.7,54.362Z"/><path class="b" d="M-423.635,54.278h0a2.106,2.106,0,0,1-2.1-2.1V40.246a2.106,2.106,0,0,1,2.1-2.1h0a2.106,2.106,0,0,1,2.1,2.1V52.178A2.106,2.106,0,0,1-423.635,54.278Z"/><path class="b" d="M-411.574,54.195h0a2.106,2.106,0,0,1-2.1-2.1V40.162a2.106,2.106,0,0,1,2.1-2.1h0a2.106,2.106,0,0,1,2.1,2.1V52.1A2.106,2.106,0,0,1-411.574,54.195Z"/><path class="b" d="M-399.514,54.111h0a2.106,2.106,0,0,1-2.1-2.1V40.079a2.106,2.106,0,0,1,2.1-2.1h0a2.106,2.106,0,0,1,2.1,2.1V52.011A2.106,2.106,0,0,1-399.514,54.111Z"/><path class="b" d="M-387.453,54.028h0a2.106,2.106,0,0,1-2.1-2.1V39.995a2.106,2.106,0,0,1,2.1-2.1h0a2.105,2.105,0,0,1,2.1,2.1V51.928A2.105,2.105,0,0,1-387.453,54.028Z"/><path class="b" d="M-375.393,53.944h0a2.106,2.106,0,0,1-2.1-2.1V39.912a2.106,2.106,0,0,1,2.1-2.1h0a2.106,2.106,0,0,1,2.1,2.1V51.844A2.106,2.106,0,0,1-375.393,53.944Z"/><path class="b" d="M-362.932,53.861h0a2.106,2.106,0,0,1-2.1-2.1V39.828a2.106,2.106,0,0,1,2.1-2.1h0a2.106,2.106,0,0,1,2.1,2.1V51.761A2.106,2.106,0,0,1-362.932,53.861Z"/><g class="h"><rect class="e" width="14.998" height="14.998" transform="translate(-456.493 72.292)"/><rect class="e" width="14.998" height="14.998" transform="translate(-435.496 72.292)"/><rect class="e" width="14.998" height="14.998" transform="translate(-414.498 72.292)"/><rect class="e" width="14.998" height="14.998" transform="translate(-393.501 72.292)"/><rect class="e" width="14.998" height="14.998" transform="translate(-372.503 72.292)"/></g><rect class="i" width="14.998" height="14.998" transform="translate(-456.626 91.891)"/><rect class="i" width="14.998" height="14.998" transform="translate(-435.629 91.891)"/><rect class="i" width="14.998" height="14.998" transform="translate(-414.631 91.891)"/><rect class="i" width="14.998" height="14.998" transform="translate(-393.634 91.891)"/><rect class="i" width="14.998" height="14.998" transform="translate(-372.636 91.891)"/><g class="j"><rect class="e" width="14.998" height="14.998" transform="translate(-456.36 111.89)"/><rect class="e" width="14.998" height="14.998" transform="translate(-435.362 111.89)"/><rect class="e" width="14.998" height="14.998" transform="translate(-414.365 111.89)"/><rect class="e" width="14.998" height="14.998" transform="translate(-393.367 111.89)"/><rect class="e" width="14.998" height="14.998" transform="translate(-372.37 111.89)"/></g><path class="e" d="M-315.157,81.085h-45.949a4.359,4.359,0,0,1-4.347-4.346h0a4.36,4.36,0,0,1,4.347-4.347h45.949a4.36,4.36,0,0,1,4.347,4.347h0A4.359,4.359,0,0,1-315.157,81.085Z"/><path class="c" d="M-317.631,76.044h-36.4a.7.7,0,0,1-.7-.7h0a.7.7,0,0,1,.7-.7h36.4a.7.7,0,0,1,.7.7h0A.7.7,0,0,1-317.631,76.044Z"/><rect class="c" width="24.643" height="1.357" rx="0.678" transform="translate(-354.929 77.844)"/><circle class="c" cx="1.9" cy="1.9" r="1.9" transform="translate(-361.828 74.544)"/><rect class="e" width="54.643" height="8.693" rx="4.347" transform="translate(-494.644 105.59)"/><path class="d" d="M-446.822,109.241h-36.4a.7.7,0,0,1-.7-.7h0a.7.7,0,0,1,.7-.7h36.4a.7.7,0,0,1,.7.7h0A.7.7,0,0,1-446.822,109.241Z"/><path class="d" d="M.679,0H23.964a.678.678,0,0,1,.678.678v0a.678.678,0,0,1-.678.678H.678A.678.678,0,0,1,0,.679v0A.679.679,0,0,1,.679,0Z" transform="translate(-484.12 111.041)"/><path class="d" d="M-487.22,109.641a1.9,1.9,0,0,1-1.9,1.9,1.9,1.9,0,0,1-1.9-1.9,1.9,1.9,0,0,1,1.9-1.9A1.9,1.9,0,0,1-487.22,109.641Z"/><rect class="e" width="18.799" height="18.799" transform="translate(-472.721 82.043)"/><path class="k" d="M-468.277,92.766l3.141,3.141,7.455-8.736"/><line class="l" y1="15.599" x2="16.399" transform="translate(-357.128 13.648)"/><line class="l" y1="15.599" x2="16.399" transform="translate(-481.52 37.246)"/><line class="m" y1="15.599" x2="16.399" transform="translate(-487.12 118.041)"/><circle class="l" cx="2.2" cy="2.2" r="2.2" transform="translate(-486.32 31.247)"/><path class="l" d="M-468.321,56.445a1.2,1.2,0,0,1-1.2,1.2,1.2,1.2,0,0,1-1.2-1.2,1.2,1.2,0,0,1,1.2-1.2A1.2,1.2,0,0,1-468.321,56.445Z"/><path class="n" d="M-301.932,50.445a1.2,1.2,0,0,1-1.2,1.2,1.2,1.2,0,0,1-1.2-1.2,1.2,1.2,0,0,1,1.2-1.2A1.2,1.2,0,0,1-301.932,50.445Z"/><path class="l" d="M-406.725.449a1.2,1.2,0,0,1-1.2,1.2,1.2,1.2,0,0,1-1.2-1.2,1.2,1.2,0,0,1,1.2-1.2A1.2,1.2,0,0,1-406.725.449Z"/><path class="b" d="M-473.921,19.847a2.6,2.6,0,0,1-2.6,2.6,2.6,2.6,0,0,1-2.6-2.6,2.6,2.6,0,0,1,2.6-2.6A2.6,2.6,0,0,1-473.921,19.847Z"/><path class="b" d="M-395.726,13.448a2.6,2.6,0,0,1-2.6,2.6,2.6,2.6,0,0,1-2.6-2.6,2.6,2.6,0,0,1,2.6-2.6A2.6,2.6,0,0,1-395.726,13.448Z"/><path class="b" d="M-311.731,58.445a2.6,2.6,0,0,1-2.6,2.6,2.6,2.6,0,0,1-2.6-2.6,2.6,2.6,0,0,1,2.6-2.6A2.6,2.6,0,0,1-311.731,58.445Z"/><path class="m" d="M-481.52,121.841a1.4,1.4,0,0,1-1.4,1.4,1.4,1.4,0,0,1-1.4-1.4,1.4,1.4,0,0,1,1.4-1.4A1.4,1.4,0,0,1-481.52,121.841Z"/><line class="m" y1="5.411" x2="6.53" transform="translate(-339.653 120.429)"/><path class="m" d="M-334.053,114.041a1.4,1.4,0,0,1-1.4,1.4,1.4,1.4,0,0,1-1.4-1.4,1.4,1.4,0,0,1,1.4-1.4A1.4,1.4,0,0,1-334.053,114.041Z" transform="translate(17 16)"/><circle class="b" cx="1.4" cy="1.4" r="1.4" transform="translate(-329.13 18.247)"/><line class="l" x2="14.998" y2="14.998" transform="translate(-435.629 91.891)"/><line class="l" y1="14.998" x2="14.998" transform="translate(-435.629 91.891)"/><line class="l" x2="14.998" y2="14.998" transform="translate(-393.501 72.292)"/><line class="l" y1="14.998" x2="14.998" transform="translate(-393.501 72.292)"/><text class="o" transform="translate(-434.105 84.021)"><tspan x="0" y="0">02 </tspan></text><text class="o" transform="translate(-413.507 103.819)"><tspan x="0" y="0">07 </tspan></text><line class="m" x2="10.999" transform="translate(-412.525 76.244)"/><line class="m" x2="10.999" transform="translate(-412.525 79.043)"/><line class="m" x2="10.999" transform="translate(-412.525 81.843)"/><line class="m" x2="3.8" transform="translate(-412.625 84.543)"/><line class="m" x2="10.999" transform="translate(-392.126 95.242)"/><line class="m" x2="10.999" transform="translate(-392.126 98.042)"/><line class="m" x2="10.999" transform="translate(-392.126 100.842)"/><line class="m" x2="3.8" transform="translate(-392.226 103.542)"/><line class="p" x2="10.999" transform="translate(-412.325 115.441)"/><line class="p" x2="10.999" transform="translate(-412.325 118.241)"/><line class="p" x2="10.999" transform="translate(-412.325 121.041)"/><line class="p" x2="3.8" transform="translate(-412.425 123.74)"/></g></svg>