<svg xmlns="http://www.w3.org/2000/svg" width="21.611" height="26.541" viewBox="0 0 21.611 26.541"><defs><style>.a,.c{fill:#18dec5;}.b{fill:none;}.c{stroke:#465be0;}</style></defs><g transform="translate(-620.408 -202.908)"><path class="a" d="M982.348,497.24l-3.94,7.683h3.94l1.773,3.152L988.849,500Z" transform="translate(-358 -278.626)"/><path class="a" d="M984.909,497.24l3.94,7.683h-3.94l-1.773,3.152L978.408,500Z" transform="translate(-346.83 -278.626)"/><g transform="translate(620.408 202.908)"><path class="b" d="M0,0H21.452V21.452H0Z"/><path class="c" d="M10.938,19.877a8.938,8.938,0,1,1,8.938-8.938A8.938,8.938,0,0,1,10.938,19.877Zm-.891-4.363,5.482-5.541L14.349,8.708l-4.3,4.278-2.191-2.38L6.591,11.938Z" transform="translate(-0.212 -0.212)"/></g></g></svg>