<svg xmlns="http://www.w3.org/2000/svg" width="65.007" height="22.922" viewBox="0 0 65.007 22.922"><defs><style>.a{fill:#fe9730;}</style></defs><g transform="translate(0 -15.68)"><g transform="translate(8.747 25.085)"><path d="M14.6,22.99c-.668-.091-1.333-.251-2-.289a5.775,5.775,0,0,0-3.678.91,5.41,5.41,0,0,0-2.4,5.006A2.4,2.4,0,0,0,7.9,30.884a2.519,2.519,0,0,0,2.723-.345,11.133,11.133,0,0,0,1.106-1.133c-.027.413-.042.807-.078,1.2-.024.244.059.338.31.329.487-.016.978-.016,1.465,0,.264.009.325-.087.342-.345.054-.84.094-1.686.231-2.515.256-1.557.573-3.107.87-4.661C14.91,23.178,14.873,23.029,14.6,22.99Zm-3.367,5.348a2.68,2.68,0,0,1-.527.588,1.065,1.065,0,0,1-1.143.234,1.014,1.014,0,0,1-.6-.962,3.746,3.746,0,0,1,1.376-3.268,2,2,0,0,1,1.935-.385A10.373,10.373,0,0,1,11.237,28.338Z" transform="translate(-6.518 -22.688)"/></g><g transform="translate(16.123 15.68)"><path class="a" d="M36.694,17.119c-1.083-1.86-3.567-1.384-3.567-1.384-.2.044-.4.093-.6.13a12.732,12.732,0,0,0-3.436,1.193A26.444,26.444,0,0,0,22.7,21.641q-1.9,1.828-3.684,3.78a35.266,35.266,0,0,0-5.292,7.548,16.419,16.419,0,0,0-1.691,4.458,1.977,1.977,0,0,0,.132.922c.04.115.255.205.405.252.04.011.162-.183.216-.3a22.547,22.547,0,0,1,1.047-2.256c.849-1.413,1.738-2.807,2.689-4.152a46.543,46.543,0,0,1,5.145-6.016,25.249,25.249,0,0,1,5.807-4.692,33.785,33.785,0,0,1,3.138-1.522,24.506,24.506,0,0,1,5.759-1.574.8.8,0,0,0,.564-.372C36.99,17.571,36.694,17.119,36.694,17.119Z" transform="translate(-12.014 -15.68)"/></g><g transform="translate(0 22.128)"><path d="M9.047,22.983A2.91,2.91,0,0,0,6.717,20.7a11.231,11.231,0,0,0-4.423.009c-.195.03-.25.16-.285.348Q1.164,25.532.3,30c-.1.538-.2,1.082-.3,1.675.754,0,1.46.005,2.165-.012.056,0,.14-.152.156-.244.228-1.149.454-2.3.663-3.454.04-.223.111-.286.348-.263a7.179,7.179,0,0,0,2.952-.3A3.942,3.942,0,0,0,9.047,22.983Zm-2.485,1.6a2.139,2.139,0,0,1-1.84,1.233,12.818,12.818,0,0,1-1.331.009c.219-1.162.411-2.193.613-3.221a.294.294,0,0,1,.181-.193,3.568,3.568,0,0,1,1.707.081A1.455,1.455,0,0,1,6.561,24.585Z" transform="translate(0 -20.485)"/></g><g transform="translate(17.557 17.211)"><path class="a" d="M16.218,21.894a8.106,8.106,0,0,0-2.252-4.706,1.456,1.456,0,0,0-.557-.344c-.208-.075-.345.043-.325.28.017.208.036.419.072.625.254,1.435.5,2.872.772,4.305q.32,1.679.7,3.347a4.452,4.452,0,0,0,.4,1.043c.13.251.318.231.493,0a1.161,1.161,0,0,0,.193-.3,9.828,9.828,0,0,0,.593-3.19C16.278,22.6,16.26,22.245,16.218,21.894Z" transform="translate(-13.083 -16.821)"/></g><g transform="translate(58.748 25.091)"><path d="M46.979,24.486c.047-.523.086-1.048.13-1.608-.647,0-1.249-.008-1.843.011-.07,0-.188.149-.193.234a53.41,53.41,0,0,1-1,6.159c-.1.529-.2,1.059-.3,1.641.774,0,1.5.005,2.229-.011.055,0,.136-.154.154-.244.228-1.114.4-2.244.674-3.35a2.592,2.592,0,0,1,2.594-2.343.262.262,0,0,0,.184-.138c.146-.69.278-1.38.424-2.126C48.539,22.555,47.7,23.417,46.979,24.486Z" transform="translate(-43.776 -22.692)"/></g><g transform="translate(51.144 25.083)"><path d="M44.193,27.251a2.216,2.216,0,0,0,1.394-2.277,2.163,2.163,0,0,0-1.672-2.106A4.2,4.2,0,0,0,39.5,24.135,5.07,5.07,0,0,0,38.157,28.4a2.75,2.75,0,0,0,2.083,2.528,6.28,6.28,0,0,0,4.124-.353.381.381,0,0,0,.193-.286c-.026-.478-.083-.96-.136-1.468-.164.063-.289.11-.412.152a4.878,4.878,0,0,1-2.285.294A1.358,1.358,0,0,1,40.4,27.8c.234,0,.454.005.674,0A7.622,7.622,0,0,0,44.193,27.251Zm-1.372-2.824a.7.7,0,0,1,.162,1.333,3.35,3.35,0,0,1-.918.264c-.467.063-.941.068-1.441.1A1.917,1.917,0,0,1,42.822,24.428Z" transform="translate(-38.11 -22.687)"/></g><g transform="translate(34.091 25.083)"><path d="M33.663,24.377a1.806,1.806,0,0,0-1.537-1.644,3.166,3.166,0,0,0-2.7.809c-.212.184-.412.382-.643.6.032-.423.066-.831.1-1.255h-2c-.494,2.675-.98,5.326-1.478,8.033.769,0,1.463.009,2.161-.012.078,0,.2-.162.217-.264.173-.866.33-1.739.482-2.606a6.919,6.919,0,0,1,.7-2.312,2.15,2.15,0,0,1,1.185-1.107.771.771,0,0,1,1.092.7,1.9,1.9,0,0,1,.005.53c-.162,1.016-.338,2.03-.517,3.042-.117.662-.246,1.322-.369,1.975.063.03.094.054.123.054.676.005,1.354.019,2.03,0,.078,0,.195-.157.217-.255.231-1.139.446-2.277.662-3.421A9.516,9.516,0,0,0,33.663,24.377Z" transform="translate(-25.403 -22.687)"/></g><g transform="translate(43.287 25.074)"><path d="M36.077,27.767a5.975,5.975,0,0,0,2.343-.55,2.341,2.341,0,0,0-.318-4.339,4.134,4.134,0,0,0-4.046.867A5.062,5.062,0,0,0,32.3,28.4a2.756,2.756,0,0,0,2.145,2.554,6.344,6.344,0,0,0,4.065-.368A.388.388,0,0,0,38.7,30.3c-.027-.48-.083-.961-.129-1.437a.413.413,0,0,0-.1,0c-.085.028-.168.062-.252.091a4.813,4.813,0,0,1-2.346.318,1.39,1.39,0,0,1-1.334-1.5C35.06,27.773,35.571,27.8,36.077,27.767Zm.866-3.342a.7.7,0,0,1,.6.585.731.731,0,0,1-.44.781,4.736,4.736,0,0,1-2.326.272A1.918,1.918,0,0,1,36.942,24.426Z" transform="translate(-32.256 -22.68)"/></g><g transform="translate(25.465 25.09)"><path d="M27.2,25.722a3.051,3.051,0,0,0-1.233-2.365,3.759,3.759,0,0,0-2.779-.629A4.927,4.927,0,0,0,19.16,28.95c.437,1.39,1.625,2.161,3.711,2.158a4.4,4.4,0,0,0,3.747-2.523A5.311,5.311,0,0,0,27.2,25.722Zm-3.331,3.009a1.466,1.466,0,0,1-1.035.6,1.294,1.294,0,0,1-1.428-1.287c-.009-.121,0-.246,0-.364A4.257,4.257,0,0,1,22.2,25.19a1.642,1.642,0,0,1,.956-.676,1.245,1.245,0,0,1,1.6,1.2A4.159,4.159,0,0,1,23.873,28.731Z" transform="translate(-18.976 -22.692)"/></g></g></svg>