<svg xmlns="http://www.w3.org/2000/svg" width="30.721" height="24.836" viewBox="0 0 30.721 24.836"><defs><style>.a{fill:#146aa8;}.b{fill:#126099;}.c{fill:#4398d1;}.d{fill:#3e8cc7;}.e{fill:#fdb62f;}.f{fill:#fd7b2f;}.g{fill:#de4c3c;}.h{fill:#87ced9;}</style></defs><g transform="translate(0 -49.045)"><path class="a" d="M49.3,66.925l1.8-11.5a2.141,2.141,0,0,0-1.774-2.453h0l-24.3-3.9a2.14,2.14,0,0,0-2.452,1.774l-.864,5.378V66.858Z" transform="translate(-20.411)"/><path class="b" d="M93.8,97.157l-6.9-1.108c-4.636,7.093-12.13,12.006-17.877,15l24.752.06,1.8-11.5A2.141,2.141,0,0,0,93.8,97.157Z" transform="translate(-64.878 -44.184)"/><path class="c" d="M2.14,159.771H26.753a2.14,2.14,0,0,1,2.14,2.14v13.911a2.14,2.14,0,0,1-2.14,2.14H2.14A2.14,2.14,0,0,1,0,175.823V161.911A2.14,2.14,0,0,1,2.14,159.771Z" transform="translate(0 -104.082)"/><path class="d" d="M121.915,159.771h-.428c-5.051,8.967-14.489,15.118-20.25,18.192h20.678a2.14,2.14,0,0,0,2.14-2.14V161.911A2.14,2.14,0,0,0,121.915,159.771Z" transform="translate(-95.163 -104.082)"/><rect class="e" width="5.351" height="4.28" transform="translate(2.675 58.364)"/><g transform="translate(2.675 59.969)"><rect class="f" width="1.605" height="1.07" transform="translate(0 0)"/><rect class="f" width="1.605" height="1.07" transform="translate(3.745 0)"/></g><circle class="e" cx="2.675" cy="2.675" r="2.675" transform="translate(20.867 65.855)"/><circle class="g" cx="2.675" cy="2.675" r="2.675" transform="translate(17.657 65.855)"/><g transform="translate(2.14 58.364)"><rect class="h" width="3.21" height="1.07" transform="translate(0 8.026)"/><rect class="h" width="3.21" height="1.07" transform="translate(5.351 8.026)"/><rect class="h" width="3.21" height="1.07" transform="translate(10.701 8.026)"/><rect class="h" width="13.911" height="1.07" transform="translate(0 11.236)"/><rect class="h" width="1.07" height="2.14" transform="translate(16.587 0)"/><rect class="h" width="1.07" height="2.14" transform="translate(18.727 0)"/><rect class="h" width="1.07" height="2.14" transform="translate(20.867 0)"/><rect class="h" width="1.07" height="2.14" transform="translate(23.007 0)"/></g></g></svg>