<svg xmlns="http://www.w3.org/2000/svg" width="52.16" height="14.075" viewBox="0 0 52.16 14.075"><defs><style>.a{fill:#139ad6;}.b{fill:#263b80;}</style></defs><g transform="translate(-4454.52 -1786.163)"><path class="a" d="M353.469,221.2h-4.021a.786.786,0,0,0-.591.473L347.2,232.081a.314.314,0,0,0,.355.355h2.129a.314.314,0,0,0,.355-.355l.473-2.957a.541.541,0,0,1,.591-.473h1.3q4.081,0,4.613-3.9a3.1,3.1,0,0,0-.473-2.6,4.77,4.77,0,0,0-3.075-.946m.473,3.9c-.237,1.419-1.3,1.419-2.366,1.419h-.71l.473-2.72c0-.118.118-.237.355-.237h.237c.71,0,1.419,0,1.774.473.237.118.237.473.237,1.064" transform="translate(4136.297 1564.963)"/><g transform="translate(4454.52 1786.163)"><path class="b" d="M157.469,221.2h-4.021a.786.786,0,0,0-.591.473L151.2,232.081a.314.314,0,0,0,.355.355h1.892a.786.786,0,0,0,.591-.473l.473-2.839a.541.541,0,0,1,.591-.473h1.3q4.081,0,4.613-3.9a3.1,3.1,0,0,0-.473-2.6,4.546,4.546,0,0,0-3.075-.946m.473,3.9c-.237,1.419-1.3,1.419-2.366,1.419h-.591l.473-2.72c0-.118.118-.237.355-.237h.237c.71,0,1.419,0,1.774.473a1.267,1.267,0,0,1,.118,1.064" transform="translate(-151.2 -221.2)"/><path class="b" d="M223.08,245.437h-1.892c-.118,0-.355.118-.355.237l-.118.591-.118-.237a2.782,2.782,0,0,0-2.247-.828,4.545,4.545,0,0,0-4.376,3.9,3.525,3.525,0,0,0,.71,2.957,2.98,2.98,0,0,0,2.484.946,3.78,3.78,0,0,0,2.72-1.065l-.118.591a.314.314,0,0,0,.355.355H221.9a.786.786,0,0,0,.591-.473l1.064-6.623c-.118-.118-.355-.355-.473-.355m-2.72,3.785a2.288,2.288,0,0,1-2.247,1.892,1.892,1.892,0,0,1-1.3-.473,2.522,2.522,0,0,1-.355-1.419,2.11,2.11,0,0,1,3.43-1.419,2.065,2.065,0,0,1,.473,1.419" transform="translate(-204.629 -241.652)"/></g><path class="a" d="M418.28,245.437h-1.892c-.118,0-.355.118-.355.237l-.118.591-.118-.237a2.782,2.782,0,0,0-2.247-.828,4.545,4.545,0,0,0-4.376,3.9,3.525,3.525,0,0,0,.71,2.957,2.98,2.98,0,0,0,2.484.946,3.78,3.78,0,0,0,2.72-1.065l-.118.591a.314.314,0,0,0,.355.355H417.1a.786.786,0,0,0,.591-.473l1.064-6.623c-.118-.118-.237-.355-.473-.355m-2.72,3.785a2.288,2.288,0,0,1-2.247,1.892,1.891,1.891,0,0,1-1.3-.473,2.522,2.522,0,0,1-.355-1.419,2.11,2.11,0,0,1,3.43-1.419,1.357,1.357,0,0,1,.473,1.419" transform="translate(4083.551 1544.511)"/><path class="b" d="M293.107,246.8H291.1a.615.615,0,0,0-.473.237l-2.6,4.021-1.183-3.785a.546.546,0,0,0-.591-.355h-1.892c-.237,0-.355.237-.355.473l2.129,6.269-2.011,2.839c-.118.237,0,.591.237.591h1.892a.614.614,0,0,0,.473-.237l6.505-9.344c.355-.355.118-.71-.118-.71" transform="translate(4190.154 1543.147)"/><path class="a" d="M476.856,221.969,475.2,232.614a.314.314,0,0,0,.355.355h1.656a.786.786,0,0,0,.591-.473l1.656-10.408a.314.314,0,0,0-.355-.355h-1.892c-.118-.118-.237,0-.355.237" transform="translate(4027.222 1564.548)"/></g></svg>