<svg xmlns="http://www.w3.org/2000/svg" width="42.776" height="17.5" viewBox="0 0 42.776 17.5"><defs><style>.a{fill:#359ad5;}</style></defs><path class="a" d="M44.293,26.77c-.862,0-.772,1.059-.807,2.19h1.436C44.921,27.685,44.921,26.77,44.293,26.77Zm-.807,4.039c0,1.023.5,1.22,1.346,1.22a17.116,17.116,0,0,0,2.782-.377v2.477a9.265,9.265,0,0,1-2.782.484c-2.136,0-4.739-.341-4.739-4.9,0-4.021,2.046-4.972,4.2-4.972,2.208,0,3.805,1.131,3.805,4.936v1.131H43.486Zm-8.419-3.554a2.193,2.193,0,0,0-.807.287v4.595a2.351,2.351,0,0,0,.574.09c.592,0,.951-.5.951-2.6C35.784,27.488,35.623,27.254,35.066,27.254Zm.395,7.359a5.6,5.6,0,0,1-1.2-.2v3.428h-3.41V24.921h2.764l.5.592a3.084,3.084,0,0,1,2.028-.772c1.4,0,3.051.395,3.051,4.882,0,4.918-2.477,4.99-3.733,4.99ZM27.707,23.754a1.705,1.705,0,1,1,1.687-1.705A1.689,1.689,0,0,1,27.707,23.754ZM26,34.434V24.921h3.41v9.513ZM23.937,27.6a2.23,2.23,0,0,0-1.131.323v6.515H19.4V24.921h2.71l.5.915a1.574,1.574,0,0,1,1.526-1.095,2.342,2.342,0,0,1,1.059.2v2.836A5.047,5.047,0,0,0,23.937,27.6Zm-6.48,4.433c.215,0,.969-.108,1.22-.144v2.423a12.905,12.905,0,0,1-2.423.305c-.969,0-2.782-.108-2.782-2.746V27.093H12.216V24.921h1.257l.431-2.154,2.979-.718v2.872h1.795l-.449,2.172H16.882v4.164C16.882,31.9,17.08,32.029,17.456,32.029ZM8.643,27.667c0,.377.251.5.844.772l.359.162a2.835,2.835,0,0,1,2.01,2.782c0,2.872-2.136,3.231-3.661,3.231a9.846,9.846,0,0,1-2.728-.449V31.706a11.965,11.965,0,0,0,2.136.413c.521,0,.915-.072.915-.538,0-.359-.251-.52-.808-.772l-.431-.2a2.869,2.869,0,0,1-1.956-2.764c0-2.549,1.992-3.105,3.662-3.105a6.821,6.821,0,0,1,2.513.449v2.387A8.849,8.849,0,0,0,9.361,27.2c-.413,0-.718.107-.718.466Z" transform="translate(-5.322 -20.344)"/></svg>