<svg xmlns="http://www.w3.org/2000/svg" width="12.096" height="12.096" viewBox="0 0 12.096 12.096"><defs><style>.a{fill:none;}.b{fill:#18dec5;}</style></defs><g transform="translate(154.048 -1140.952)"><g transform="translate(-154.048 1140.952)"><path class="a" d="M0,0H12.1V12.1H0Z"/><path class="b" d="M2,6.04H12.08v4.536a.5.5,0,0,1-.5.5H2.5a.5.5,0,0,1-.5-.5ZM9.56,2.008h2.016a.5.5,0,0,1,.5.5v2.52H2V2.512a.5.5,0,0,1,.5-.5H4.52V1H5.528V2.008H8.552V1H9.56Z" transform="translate(-0.992 -0.496)"/></g><path class="a" d="M510.946,1320.971l1.016,1.191,1.892-1.542" transform="translate(-839.444 -88.578) rotate(-8)"/></g></svg>