<svg xmlns="http://www.w3.org/2000/svg" width="17.914" height="17.914" viewBox="0 0 17.914 17.914"><defs><style>.a{fill:none;}.b{fill:#5b6f81;}</style></defs><path class="a" d="M0,0H17.914V17.914H0Z"/><path class="b" d="M2.656,3h11.8a.705.705,0,0,1,.656.746V15.689a.705.705,0,0,1-.656.746H2.656A.705.705,0,0,1,2,15.689V3.746A.705.705,0,0,1,2.656,3Zm3.606,8.211V12.7H7.9V14.2H9.213V12.7h.656a1.764,1.764,0,0,0,1.639-1.866A1.764,1.764,0,0,0,9.868,8.971H7.246a.376.376,0,0,1,0-.746h3.606V6.732H9.213V5.239H7.9V6.732H7.246A1.764,1.764,0,0,0,5.606,8.6a1.764,1.764,0,0,0,1.639,1.866H9.868a.376.376,0,0,1,0,.746Z" transform="translate(0.4 -0.761)"/></svg>